<svg width="952" height="336" viewBox="0 0 952 336" fill="none" xmlns="http://www.w3.org/2000/svg">
<path d="M476 203.052C495.359 203.052 511.052 187.359 511.052 168C511.052 148.641 495.359 132.948 476 132.948C456.641 132.948 440.948 148.641 440.948 168C440.948 187.359 456.641 203.052 476 203.052Z" fill="#1E1E1E"/>
<path d="M476 500.837C292.454 500.837 143.164 351.546 143.164 168C143.164 -15.5461 292.454 -164.837 476 -164.837C659.546 -164.837 808.837 -15.5461 808.837 168C808.837 351.546 659.546 500.837 476 500.837ZM476 -157.985C296.278 -157.985 150.015 -11.7222 150.015 168C150.015 347.722 296.278 493.985 476 493.985C655.722 493.985 801.986 347.722 801.986 168C801.986 -11.7222 655.722 -157.985 476 -157.985Z" fill="#1E1E1E"/>
<path d="M476 579.344C249.16 579.344 64.6562 394.84 64.6562 168C64.6562 -58.8396 249.16 -243.344 476 -243.344C702.84 -243.344 887.344 -58.8396 887.344 168C887.344 394.84 702.84 579.344 476 579.344ZM476 -234.877C253.886 -234.877 73.1234 -54.1138 73.1234 168C73.1234 390.114 253.886 570.877 476 570.877C698.114 570.877 878.877 390.114 878.877 168C878.877 -54.1138 698.114 -234.877 476 -234.877Z" fill="#1E1E1E" fill-opacity="0.6"/>
<path d="M476 543.413C268.952 543.413 100.587 375.048 100.587 168C100.587 -39.0479 268.952 -207.413 476 -207.413C683.048 -207.413 851.413 -39.0479 851.413 168C851.413 375.048 683.048 543.413 476 543.413ZM476 -200.085C273.042 -200.085 107.915 -34.958 107.915 168C107.915 370.958 273.042 536.085 476 536.085C678.958 536.085 844.085 370.958 844.085 168C844.085 -34.958 678.958 -200.085 476 -200.085Z" fill="#1E1E1E" fill-opacity="0.8"/>
<path d="M476 610.195C232.148 610.195 33.8057 411.853 33.8057 168C33.8057 -75.8526 232.148 -274.195 476 -274.195C719.853 -274.195 918.195 -75.8526 918.195 168C918.195 411.853 719.853 610.195 476 610.195ZM476 -265.092C237.228 -265.092 42.9078 -70.7724 42.9078 168C42.9078 406.772 237.228 601.092 476 601.092C714.773 601.092 909.093 406.772 909.093 168C909.093 -70.7724 714.773 -265.092 476 -265.092Z" fill="#1E1E1E" fill-opacity="0.5"/>
<path d="M476 643.249C213.919 643.249 0.750977 430.081 0.750977 168C0.750977 -94.0809 213.919 -307.249 476 -307.249C738.081 -307.249 951.249 -94.0809 951.249 168C951.249 430.081 738.081 643.249 476 643.249ZM476 -297.467C219.379 -297.467 10.5335 -88.6209 10.5335 168C10.5335 424.621 219.379 633.467 476 633.467C732.621 633.467 941.467 424.621 941.467 168C941.467 -88.6209 732.621 -297.467 476 -297.467Z" fill="#1E1E1E" fill-opacity="0.3"/>
<path d="M476 352.661C374.189 352.661 291.338 269.811 291.338 168C291.338 66.1893 374.189 -16.6614 476 -16.6614C577.81 -16.6614 660.661 66.1893 660.661 168C660.661 269.811 577.81 352.661 476 352.661ZM476 -9.81027C378.013 -9.81027 298.189 70.0132 298.189 168C298.189 265.987 378.013 345.81 476 345.81C573.987 345.81 653.81 265.987 653.81 168C653.81 70.0132 573.987 -9.81027 476 -9.81027Z" fill="#1E1E1E"/>
<path d="M476 429.286C331.943 429.286 214.714 312.056 214.714 168C214.714 23.9435 331.943 -93.2856 476 -93.2856C620.056 -93.2856 737.286 23.9435 737.286 168C737.286 312.056 620.056 429.286 476 429.286ZM476 -83.5917C337.354 -83.5917 224.408 29.354 224.408 168C224.408 306.646 337.354 419.592 476 419.592C614.646 419.592 727.592 306.646 727.592 168C727.592 29.354 614.646 -83.5917 476 -83.5917Z" fill="#1E1E1E"/>
<path d="M535.589 175.329C531.765 175.329 528.738 172.302 528.738 168.478C528.738 164.654 531.765 161.627 535.589 161.627L758.967 160.512C762.791 160.512 765.818 163.539 765.818 167.363C765.818 171.187 762.791 174.214 758.967 174.214L535.589 175.329Z" fill="#1E1E1E"/>
<path d="M193.033 175.329C189.209 175.329 186.182 172.302 186.182 168.478C186.182 164.654 189.209 161.627 193.033 161.627L416.411 160.512C420.235 160.512 423.262 163.539 423.262 167.363C423.262 171.187 420.235 174.214 416.411 174.214L193.033 175.329Z" fill="#1E1E1E"/>
<path d="M476.637 457.659C472.813 457.659 469.786 454.631 469.786 450.808L468.671 227.429C468.671 223.606 471.698 220.578 475.522 220.578C479.187 220.578 482.373 223.606 482.373 227.429L483.488 450.808C483.329 454.631 480.302 457.659 476.637 457.659Z" fill="#1E1E1E"/>
<path d="M476.637 115.262C472.813 115.262 469.786 112.235 469.786 108.411L468.671 -114.967C468.671 -118.791 471.698 -121.818 475.522 -121.818C479.346 -121.818 482.373 -118.791 482.373 -114.967L483.488 108.411C483.329 112.076 480.302 115.262 476.637 115.262Z" fill="#1E1E1E"/>
<path d="M564.905 195.723C561.081 195.723 558.054 192.696 558.054 188.872V146.969C558.054 143.145 561.081 140.118 564.905 140.118C568.729 140.118 571.756 143.145 571.756 146.969V188.872C571.756 192.696 568.729 195.723 564.905 195.723Z" fill="#1E1E1E"/>
<path d="M595.337 195.723C591.513 195.723 588.486 192.696 588.486 188.872V146.969C588.486 143.145 591.513 140.118 595.337 140.118C599.161 140.118 602.188 143.145 602.188 146.969V188.872C602.188 192.696 599.161 195.723 595.337 195.723Z" fill="#1E1E1E"/>
<path d="M625.928 195.723C622.104 195.723 619.077 192.696 619.077 188.872V146.969C619.077 143.145 622.104 140.118 625.928 140.118C629.752 140.118 632.779 143.145 632.779 146.969V188.872C632.62 192.696 629.593 195.723 625.928 195.723Z" fill="#1E1E1E"/>
<path d="M326.072 195.723C322.248 195.723 319.221 192.696 319.221 188.872V146.969C319.221 143.145 322.248 140.118 326.072 140.118C329.896 140.118 332.923 143.145 332.923 146.969V188.872C332.923 192.696 329.896 195.723 326.072 195.723Z" fill="#1E1E1E"/>
<path d="M356.504 195.723C352.68 195.723 349.653 192.696 349.653 188.872V146.969C349.653 143.145 352.68 140.118 356.504 140.118C360.328 140.118 363.355 143.145 363.355 146.969V188.872C363.355 192.696 360.328 195.723 356.504 195.723Z" fill="#1E1E1E"/>
<path d="M387.095 195.723C383.271 195.723 380.244 192.696 380.244 188.872V146.969C380.244 143.145 383.271 140.118 387.095 140.118C390.919 140.118 393.946 143.145 393.946 146.969V188.872C393.787 192.696 390.76 195.723 387.095 195.723Z" fill="#1E1E1E"/>
<path d="M496.872 263.756H454.969C451.145 263.756 448.118 260.729 448.118 256.905C448.118 253.081 451.145 250.054 454.969 250.054H496.872C500.696 250.054 503.723 253.081 503.723 256.905C503.723 260.729 500.696 263.756 496.872 263.756Z" fill="#1E1E1E"/>
<path d="M496.872 294.188H454.969C451.145 294.188 448.118 291.161 448.118 287.337C448.118 283.513 451.145 280.486 454.969 280.486H496.872C500.696 280.486 503.723 283.513 503.723 287.337C503.723 291.161 500.696 294.188 496.872 294.188Z" fill="#1E1E1E"/>
<path d="M496.872 324.62H454.969C451.145 324.62 448.118 321.592 448.118 317.769C448.118 313.945 451.145 310.917 454.969 310.917H496.872C500.696 310.917 503.723 313.945 503.723 317.769C503.723 321.592 500.696 324.62 496.872 324.62Z" fill="#1E1E1E"/>
<path d="M496.872 24.9233H454.969C451.145 24.9233 448.118 21.896 448.118 18.0721C448.118 14.2483 451.145 11.221 454.969 11.221H496.872C500.696 11.221 503.723 14.2483 503.723 18.0721C503.723 21.896 500.696 24.9233 496.872 24.9233Z" fill="#1E1E1E"/>
<path d="M496.872 55.3549H454.969C451.145 55.3549 448.118 52.3277 448.118 48.5038C448.118 44.68 451.145 41.6527 454.969 41.6527H496.872C500.696 41.6527 503.723 44.68 503.723 48.5038C503.723 52.3277 500.696 55.3549 496.872 55.3549Z" fill="#1E1E1E"/>
<path d="M496.872 85.7866H454.969C451.145 85.7866 448.118 82.7594 448.118 78.9355C448.118 75.1116 451.145 72.0844 454.969 72.0844H496.872C500.696 72.0844 503.723 75.1116 503.723 78.9355C503.723 82.7594 500.696 85.7866 496.872 85.7866Z" fill="#1E1E1E"/>
</svg>
