<svg width="29" height="22" viewBox="0 0 29 22" fill="none" xmlns="http://www.w3.org/2000/svg">
<path d="M15.0849 8.24627L11.825 2.64926C11.1998 1.52985 12.1822 0.231346 13.4326 0.544779C21.1583 2.47015 26.1152 7.17164 28.2141 9.54478C28.9286 10.3507 28.9286 11.6045 28.2141 12.4104C26.1152 14.8284 21.1583 19.5299 13.4326 21.4552C12.1822 21.7687 11.1998 20.4254 11.825 19.3507L15.0849 13.7537C16.112 12.0522 16.112 9.94776 15.0849 8.24627Z" fill="white"/>
<path d="M3.20616 9.05224L0.883987 5.06716C0.437416 4.30597 1.15193 3.36567 2.00041 3.54477C7.5379 4.93283 11.0658 8.29104 12.5395 9.99253C13.0754 10.5746 13.0754 11.4701 12.5395 12.0522C11.0212 13.7537 7.49324 17.1119 2.04507 18.4552C1.15193 18.6791 0.437417 17.7388 0.928645 16.9328L3.20616 12.9925C3.92067 11.7388 3.92067 10.2612 3.20616 9.05224Z" fill="white"/>
</svg>
