<svg width="29" height="22" viewBox="0 0 29 22" fill="none" xmlns="http://www.w3.org/2000/svg">
<path d="M14.4151 13.7537L17.675 19.3507C18.3002 20.4701 17.3178 21.7687 16.0674 21.4552C8.34171 19.5298 3.38477 14.8284 1.28589 12.4552C0.571372 11.6493 0.571372 10.3955 1.28589 9.58955C3.38477 7.17164 8.34171 2.47015 16.0674 0.544775C17.3178 0.231342 18.3002 1.57463 17.675 2.64925L14.4151 8.24627C13.388 9.94776 13.388 12.0522 14.4151 13.7537Z" fill="white"/>
<path d="M26.2938 12.9478L28.616 16.9328C29.0626 17.694 28.3481 18.6343 27.4996 18.4552C21.9621 17.0672 18.4342 13.709 16.9605 12.0075C16.4246 11.4254 16.4246 10.5299 16.9605 9.94776C18.4788 8.24627 22.0068 4.88806 27.4549 3.54478C28.3481 3.3209 29.0626 4.2612 28.5714 5.06717L26.2938 9.00747C25.5793 10.2612 25.5793 11.7388 26.2938 12.9478Z" fill="white"/>
</svg>
