<svg width="436" height="398" viewBox="0 0 436 398" fill="none" xmlns="http://www.w3.org/2000/svg">
<path d="M179.418 57.6901L188.705 149.466L223.083 44.8511L179.418 57.6901Z" fill="#9D1B31"/>
<path d="M122.903 0.876953L179.405 57.6799L223.071 44.84L122.903 0.876953Z" fill="#D03132"/>
<path d="M167.058 143.03L188.692 149.454L179.405 57.68L122.903 0.876953L167.058 143.03Z" fill="#7F4678"/>
<path d="M76.6829 10.4678L128.148 182.553L75.5909 272.355L0.810913 103.322L76.6829 10.4678Z" fill="#7F4678"/>
<path d="M276.532 40.8848L326.616 118.041L235.431 162.678L276.532 40.8848Z" fill="#DF2425"/>
<path d="M382.931 13.4258L326.622 118.041L276.531 40.8848L382.931 13.4258Z" fill="#ED4643"/>
<path d="M434.97 128.322L326.602 118.042L382.911 13.4268L434.97 128.322Z" fill="#BC2328"/>
<path d="M374.909 210.206C372.738 206.352 326.601 118.041 326.601 118.041L435.267 127.909L374.909 210.206Z" fill="#9A2126"/>
<path d="M235.431 162.678L374.922 210.206L326.616 118.041L235.431 162.678Z" fill="#BD282E"/>
<path d="M177.636 191.537L248.465 387.822L341.423 249.124L177.636 191.537Z" fill="#A83C3B"/>
<path d="M198.782 397.123L75.5969 272.354L128.148 182.552L198.782 397.123Z" fill="#C73C38"/>
<path d="M239.971 251.788L248.464 387.822L177.635 191.537L239.971 251.788Z" fill="#D42F31"/>
<path d="M341.422 249.124L239.971 251.788L177.636 191.537L341.422 249.124Z" fill="#B92931"/>
<path d="M248.47 387.833L239.978 251.788L341.429 249.135L248.47 387.833Z" fill="#9D1C21"/>
<path d="M0.810913 103.322L128.147 182.553L76.6819 10.4678L0.810913 103.322Z" fill="#797CB3"/>
<path d="M128.147 182.553L75.5959 272.355L163.415 289.627L128.147 182.553Z" fill="#DB4545"/>
<path d="M198.782 397.123L75.5969 272.354L128.148 182.552L198.782 397.123Z" fill="#9B1C31"/>
<path d="M128.147 182.553L75.5959 272.355L163.415 289.627L128.147 182.553Z" fill="#9B1C31"/>
</svg>
