<svg width="20" height="13" viewBox="0 0 20 13" fill="none" xmlns="http://www.w3.org/2000/svg">
<path fill-rule="evenodd" clip-rule="evenodd" d="M19.8392 6.95463L16.9742 9.84409H14.252C13.9444 9.84509 13.6944 10.096 13.6944 10.406V12.0527C13.6915 12.2326 13.5456 12.3776 13.3661 12.3776H11.2877C11.1062 12.3776 10.9593 12.2296 10.9593 12.0467V8.04643L12.6607 6.33175C12.7897 6.20977 12.9911 6.21177 13.1171 6.33775L13.868 7.0946H15.8363L17.1061 5.81584V4.13716L15.8055 2.82041H14.0555L7.09826 9.83209H3.04373L0.15387 6.92164V2.99437L3.0467 0.0789192H7.00104L8.71531 1.8066C8.83733 1.93457 8.83733 2.13753 8.71531 2.26551L7.25798 3.72923C7.14191 3.86421 6.93854 3.87921 6.80461 3.76223C6.79668 3.75523 6.78874 3.74723 6.7808 3.74023L5.87208 2.8274H4.17566L2.88103 4.13216V5.78585L4.1717 7.0886H5.96831L12.9266 0.0769196H16.9355L19.8392 3.00337V6.95463Z" fill="white"/>
</svg>
